<svg width="24" height="24" viewBox="0 0 24 24" fill="none" xmlns="http://www.w3.org/2000/svg">
<path d="M21.0758 16.634C20.5802 17.7332 20.3414 18.224 19.703 19.196C18.8126 20.552 17.555 22.2416 15.9986 22.256C14.6162 22.268 14.261 21.356 12.383 21.3668C10.5062 21.3764 10.115 22.2728 8.7314 22.2596C7.175 22.2452 5.9834 20.72 5.0918 19.3628C2.5994 15.5708 2.339 11.1188 3.8762 8.75125C4.9682 7.07005 6.6926 6.08605 8.3126 6.08605C9.9626 6.08605 11.0006 6.99085 12.3638 6.99085C13.6874 6.99085 14.4938 6.08365 16.4018 6.08365C17.8418 6.08365 19.3706 6.86965 20.459 8.22565C16.8926 10.1804 17.471 15.2732 21.0758 16.634ZM14.9546 4.56925C15.647 3.67885 16.1738 2.42365 15.983 1.13965C14.8502 1.21765 13.5266 1.93765 12.7526 2.87725C12.0518 3.72925 11.4722 4.99285 11.6966 6.22165C12.9326 6.25885 14.2118 5.52085 14.9546 4.56925Z" fill="#F2F2F2" fill-opacity="0.4"/>
</svg>
