<svg width="312" height="352" viewBox="0 0 312 352" fill="none" xmlns="http://www.w3.org/2000/svg">
<g clip-path="url(#clip0_76_34)">
<g filter="url(#filter0_f_76_34)">
<path fill-rule="evenodd" clip-rule="evenodd" d="M148.789 148.084L188.954 160.557C203.859 165.185 219.694 156.854 224.323 141.949C228.951 127.044 220.62 111.209 205.715 106.581L165.55 94.1084L148.789 148.084ZM262.097 153.679C273.203 117.912 253.212 79.9133 217.445 68.8066L139.506 44.6045L99.2853 174.128L177.224 198.331C212.991 209.437 250.99 189.446 262.097 153.679Z" fill="#3A3656"/>
<path fill-rule="evenodd" clip-rule="evenodd" d="M117.503 248.824L155.269 260.551C171.499 265.591 188.741 256.52 193.781 240.29C198.821 224.06 189.749 206.818 173.52 201.778L135.753 190.051L117.503 248.824ZM231.555 252.02C243.073 214.928 222.341 175.522 185.25 164.004L109.709 140.547L67.9988 274.868L143.539 298.325C180.631 309.843 220.037 289.112 231.555 252.02Z" fill="#3A3656"/>
<path d="M78.5547 240.852L68.1271 274.432L30.0735 262.615L40.5011 229.035L78.5547 240.852Z" fill="#3A3656"/>
<path d="M139.496 44.6025L129.068 78.1828L91.0149 66.3662L101.443 32.7859L139.496 44.6025Z" fill="#3A3656"/>
<path d="M177.984 56.5518L144.687 46.2122L153.625 17.4291L186.922 27.7687L177.984 56.5518Z" fill="#3A3656"/>
<path d="M97.5391 315.601L64.2422 305.261L73.1801 276.478L106.477 286.817L97.5391 315.601Z" fill="#3A3656"/>
<path d="M227.277 71.8594L193.98 61.5198L202.918 32.7367L236.215 43.0763L227.277 71.8594Z" fill="#3A3656"/>
<path d="M146.84 330.908L113.543 320.569L122.481 291.786L155.778 302.125L146.84 330.908Z" fill="#3A3656"/>
</g>
</g>
<defs>
<filter id="filter0_f_76_34" x="12.0742" y="-0.571289" width="271.09" height="349.479" filterUnits="userSpaceOnUse" color-interpolation-filters="sRGB">
<feFlood flood-opacity="0" result="BackgroundImageFix"/>
<feBlend mode="normal" in="SourceGraphic" in2="BackgroundImageFix" result="shape"/>
<feGaussianBlur stdDeviation="9" result="effect1_foregroundBlur_76_34"/>
</filter>
<clipPath id="clip0_76_34">
<rect width="312" height="352" fill="white"/>
</clipPath>
</defs>
</svg>
