<svg width="24" height="24" viewBox="0 0 24 24" fill="none" xmlns="http://www.w3.org/2000/svg">
<path d="M5.93004 21.6597L15.1292 16.4673L13.154 14.2797L5.93004 21.6597ZM2.57004 2.5473C2.46324 2.7369 2.39844 2.9553 2.39844 3.1977V21.3477C2.39844 21.6837 2.52444 21.9717 2.71404 22.1997L11.8664 12.8517L2.57004 2.5473ZM20.9744 11.3781L17.7668 9.5673L14.5004 12.9045L16.8416 15.5001L20.9744 13.1685C21.1453 13.0837 21.292 12.9573 21.4011 12.8008C21.5101 12.6443 21.578 12.4629 21.5984 12.2733C21.578 12.0837 21.5101 11.9023 21.4011 11.7458C21.292 11.5893 21.1453 11.4629 20.9744 11.3781ZM16.0364 8.5905L4.97244 2.3457L13.2116 11.4777L16.0364 8.5905Z" fill="#F2F2F2" fill-opacity="0.4"/>
</svg>
